#!OML:ASF E:\acrobat2\Project_11_07_03\Capture day 1\Session 1\Acrobat.ASF
:FULLY-SPECIFIED
:DEGREES
49
root 8.66917 17.9953 -27.7195 16.0587 -86.9776 -9.18811
lowerback -6.68247 1.66135 1.82975
upperback -4.54314 1.99358 -1.52629
thorax -0.823206 0.888222 -2.47883
lowerneck -0.346263 -1.14574 -1.39539
upperneck 5.93268 -1.82425 4.75375
head 1.98832 -0.865991 1.71274
rclavicle 3.8763e-015 -1.63003e-014
rhumerus -4.62127 -24.1866 2.41197
rradius 21.4745
rwrist 15.8152
rhand -5.93638 -43.5344
rfingers 7.12502
rthumb 19.8935 -72.5362
lclavicle 3.8763e-015 -1.63003e-014
lhumerus 2.47732 13.1201 -1.49331
lradius 22.4667
lwrist 5.68931
lhand -13.701 -9.79661
lfingers 7.12502
lthumb 12.4174 19.8145
rfemur 6.18733 18.2518 11.988
rtibia -3.79454
rfoot -28.3494 -30.7612
rtoes 5.79827
lfemur 3.87049 -4.20985 -4.9426
ltibia -1.95694
lfoot -22.2479 8.19203
ltoes 23.6861
50
root 8.66458 17.9956 -27.7182 14.1225 -86.9224 -7.16737
lowerback -6.77417 1.6515 1.7635
upperback -4.61521 1.97847 -1.56806
thorax -0.848571 0.878778 -2.48446
lowerneck -0.0981534 -1.17206 -1.27417
upperneck 5.49038 -1.83 4.57132
head 1.7961 -0.875857 1.62983
rclavicle -7.00716e-015 2.78299e-015
rhumerus -4.68775 -24.1412 2.32807
rradius 21.3304
rwrist 15.9872
rhand -6.01512 -43.6375
rfingers 7.12502
rthumb 19.8178 -72.6472
lclavicle -7.00716e-015 2.78299e-015
lhumerus 2.63265 13.5544 -1.2183
lradius 22.1361
lwrist 5.2717
lhand -14.0594 -9.74032
lfingers 7.12502
lthumb 12.0718 19.8915
rfemur 6.14479 18.3167 11.8733
rtibia -3.80109
rfoot -28.5019 -30.7811
rtoes 6.18816
lfemur 3.80774 -4.33269 -5.07912
ltibia -2.04163
lfoot -22.094 8.72691
ltoes 21.2248
51
root 8.66055 17.9957 -27.715 13.0888 -86.827 -6.06872
lowerback -6.85182 1.6089 1.77736
upperback -4.66092 1.91723 -1.58594
thorax -0.855386 0.845881 -2.51332
lowerneck 0.0631032 -1.26681 -1.21112
upperneck 5.10434 -1.9327 4.44574
head 1.64369 -0.932486 1.5751
rclavicle -1.23743e-014 -1.98785e-015
rhumerus -4.62656 -24.4432 2.14312
rradius 21.0889
rwrist 16.5401
rhand -5.93899 -43.6936
rfingers 7.12502
rthumb 19.891 -72.6956
lclavicle -1.23743e-014 -1.98785e-015
lhumerus 2.5925 13.7789 -1.02877
lradius 21.7971
lwrist 4.68524
lhand -14.187 -9.60255
lfingers 7.12502
lthumb 11.9488 20.0364
rfemur 6.14179 18.4063 11.8381
rtibia -3.82346
rfoot -28.6873 -30.8312
rtoes 6.74063
lfemur 3.69649 -4.10818 -5.08672
ltibia -1.99159
lfoot -21.9016 8.27068
ltoes 22.7494
52
root 8.6561 17.995 -27.7126 13.9577 -86.7139 -6.899
lowerback -6.93189 1.56766 1.88161
upperback -4.67152 1.85485 -1.5523
thorax -0.823684 0.812757 -2.53934
lowerneck 0.314939 -1.32281 -1.28166
upperneck 4.57249 -1.9768 4.34578
head 1.43055 -0.963478 1.55351
rclavicle -1.00386e-014 -5.1684e-015
rhumerus -4.461 -25.3591 1.88068
rradius 20.7534
rwrist 17.6718
rhand -5.72736 -43.8649
rfingers 7.12502
rthumb 20.0944 -72.8457
lclavicle -1.00386e-014 -5.1684e-015
lhumerus 2.4682 13.811 -0.873024
lradius 21.444
lwrist 4.09345
lhand -14.3189 -9.63455
lfingers 7.12502
lthumb 11.8216 20.0118
rfemur 6.19322 18.569 11.9669
rtibia -3.87708
rfoot -28.9095 -30.9766
rtoes 7.04963
lfemur 3.61212 -3.72708 -4.92746
ltibia -1.94043
lfoot -21.5501 7.76511
ltoes 24.0859
53
root 8.65297 17.9945 -27.7117 14.4251 -86.6037 -7.38959
lowerback -6.92599 1.50169 1.90535
upperback -4.65977 1.76671 -1.49464
thorax -0.820929 0.769352 -2.49879
lowerneck 0.490392 -1.36726 -1.30129
upperneck 4.06616 -2.00201 4.0966
head 1.23672 -0.983905 1.47615
rclavicle -2.66371e-014 1.31198e-014
rhumerus -4.2181 -26.7598 1.54789
rradius 20.4119
rwrist 19.2335
rhand -5.42161 -43.8382
rfingers 7.12502
rthumb 20.3883 -72.7879
lclavicle -2.66371e-014 1.31198e-014
lhumerus 2.29052 13.3695 -0.861232
lradius 21.115
lwrist 4.04756
lhand -14.4149 -9.49941
lfingers 7.12502
lthumb 11.729 20.1522
rfemur 6.2735 18.5669 12.0507
rtibia -3.89279
rfoot -29.0338 -31.0552
rtoes 7.23473
lfemur 3.60076 -3.45721 -4.80941
ltibia -1.91788
lfoot -21.172 7.68978
ltoes 23.3992
54
root 8.65315 17.9942 -27.7091 14.2815 -86.4993 -7.30627
lowerback -6.82171 1.39603 1.89075
upperback -4.63917 1.6305 -1.41764
thorax -0.86752 0.702915 -2.42177
lowerneck 0.5435 -1.41188 -1.29168
upperneck 3.61665 -2.02993 3.7904
head 1.08197 -1.00306 1.37614
rclavicle 6.65929e-015 7.95139e-016
rhumerus -3.68524 -29.7582 0.90133
rradius 19.8883
rwrist 22.3573
rhand -5.17048 -43.3703
rfingers 7.12502
rthumb 20.6296 -72.294
lclavicle 6.65929e-015 7.95139e-016
lhumerus 1.95322 12.6515 -0.943302
lradius 20.8364
lwrist 4.41964
lhand -14.3528 -9.11283
lfingers 7.12502
lthumb 11.7889 20.5354
rfemur 6.34463 18.5051 12.0779
rtibia -3.84641
rfoot -29.1609 -31.0656
rtoes 7.44412
lfemur 3.62537 -3.42354 -4.78818
ltibia -1.90394
lfoot -21.0264 7.61405
ltoes 23.3269
55
root 8.65579 17.9925 -27.7033 12.003 -86.4591 -5.11002
lowerback -6.63925 1.30203 1.79867
upperback -4.61764 1.51514 -1.40196
thorax -0.955144 0.647452 -2.36438
lowerneck 0.63659 -1.46521 -1.3717
upperneck 3.10989 -2.07713 3.68034
head 0.908381 -1.0315 1.35487
rclavicle 8.12532e-015 7.95139e-016
rhumerus -4.0869 -25.9376 1.18747
rradius 20.3975
rwrist 18.612
rhand -5.30952 -44.1271
rfingers 7.12502
rthumb 20.496 -73.0652
lclavicle 8.12532e-015 7.95139e-016
lhumerus 1.55764 12.0355 -1.01929
lradius 20.6053
lwrist 4.75465
lhand -13.9804 -8.77595
lfingers 7.12502
lthumb 12.148 20.8513
rfemur 6.44434 18.5771 11.9627
rtibia -3.80423
rfoot -29.3655 -31.0788
rtoes 7.39302
lfemur 3.756 -4.02849 -5.07277
ltibia -2.00639
lfoot -21.5343 7.52893
ltoes 25.2738
56
root 8.65867 17.9908 -27.6985 9.20637 -86.455 -2.3986
lowerback -6.43727 1.23077 1.63191
upperback -4.59591 1.43364 -1.38551
thorax -1.05291 0.610619 -2.26208
lowerneck 0.917891 -1.34767 -1.39475
upperneck 2.02642 -1.88175 3.66171
head 0.519903 -0.942276 1.35643
rclavicle 1.06847e-015 1.98785e-015
rhumerus -4.38868 -24.0902 1.27938
rradius 20.7684
rwrist 16.7853
rhand -5.43041 -44.65
rfingers 7.12502
rthumb 20.3798 -73.6006
lclavicle 1.06847e-015 1.98785e-015
lhumerus 1.15596 11.341 -1.1025
lradius 20.4613
lwrist 5.29065
lhand -13.6745 -8.56085
lfingers 7.12502
lthumb 12.4429 21.0488
rfemur 6.52283 18.5473 11.7628
rtibia -3.76478
rfoot -29.4211 -30.9973
rtoes 7.26455
lfemur 3.88053 -4.40293 -5.3616
ltibia -2.06724
lfoot -21.9866 7.24323
ltoes 27.7657
57
root 8.66256 17.9896 -27.6968 8.92293 -86.4321 -2.19849
lowerback -6.22994 1.14853 1.59822
upperback -4.56507 1.33169 -1.31965
thorax -1.1432 0.561835 -2.18428
lowerneck 0.912072 -1.46645 -1.37387
upperneck 1.32355 -2.01359 3.52391
head 0.30616 -1.01169 1.31069
rclavicle -6.26172e-015 1.27222e-014
rhumerus -4.32645 -24.549 1.01481
rradius 20.7316
rwrist 17.24
rhand -5.5071 -44.8607
rfingers 7.12502
rthumb 20.3061 -73.8191
lclavicle -6.26172e-015 1.27222e-014
lhumerus 0.687082 10.5373 -1.25539
lradius 20.4262
lwrist 6.05815
lhand -13.5991 -8.29034
lfingers 7.12502
lthumb 12.5156 21.3149
rfemur 6.56707 18.5005 11.764
rtibia -3.68465
rfoot -29.5244 -30.9275
rtoes 7.60952
lfemur 3.85566 -3.79988 -5.27459
ltibia -1.90661
lfoot -21.4833 7.07889
ltoes 26.886
58
root 8.66684 17.9881 -27.6963 8.3492 -86.4213 -1.7276
lowerback -5.98675 1.07002 1.56394
upperback -4.53892 1.23487 -1.28333
thorax -1.25718 0.514946 -2.13645
lowerneck 1.17442 -1.5134 -1.44244
upperneck 0.437685 -2.04967 3.35934
head -0.00930759 -1.03665 1.277
rclavicle 1.63997e-015 1.19271e-015
rhumerus -4.30374 -24.7394 0.761276
rradius 20.7158
rwrist 17.3989
rhand -5.71711 -45.0117
rfingers 7.12502
rthumb 20.1043 -73.9916
lclavicle 1.63997e-015 1.19271e-015
lhumerus 0.259223 10.0694 -1.36234
lradius 20.4303
lwrist 6.56872
lhand -13.3974 -8.07639
lfingers 7.12502
lthumb 12.7101 21.5168
rfemur 6.62977 18.4277 11.7547
rtibia -3.60495
rfoot -29.5766 -30.8683
rtoes 7.7282
lfemur 3.86954 -3.34185 -5.23723
ltibia -1.76911
lfoot -21 7.14739
ltoes 24.9045
59
root 8.66994 17.9871 -27.696 6.25416 -86.4333 0.28696
lowerback -5.76946 1.04645 1.42283
upperback -4.53971 1.2135 -1.27808
thorax -1.38232 0.507008 -2.05639
lowerneck 1.42136 -1.57696 -1.5995
upperneck -0.351466 -2.11687 3.37321
head -0.289226 -1.07644 1.3168
rclavicle -1.65488e-014 5.96354e-015
rhumerus -4.47564 -24.6595 0.740261
rradius 20.733
rwrist 17.3132
rhand -5.94661 -45.0414
rfingers 7.12502
rthumb 19.8837 -74.0443
lclavicle -1.65488e-014 5.96354e-015
lhumerus -0.0068414 9.91123 -1.26871
lradius 20.4344
lwrist 6.81715
lhand -13.3224 -8.08261
lfingers 7.12502
lthumb 12.7824 21.5061
rfemur 6.65847 18.2169 11.5662
rtibia -3.54453
rfoot -29.3791 -30.7281
rtoes 7.41438
lfemur 3.95129 -3.42244 -5.41945
ltibia -1.76596
lfoot -21.0628 7.09169
ltoes 25.3484
